<svg width="50" height="50" viewBox="0 0 50 50" fill="none" xmlns="http://www.w3.org/2000/svg">
<path d="M25 0C11.1978 0 0 11.2178 0 25.0449C0.000211891 27.7503 0.432046 30.3502 1.22516 32.786C5.28955 31.5101 9.35458 30.5462 13.4189 32.786L22.603 30.2886L20.3021 29.0613C20.0355 22.8897 20.2152 19.4571 21.3417 16.0034L15.0246 18.5073C17.166 15.2079 20.1227 13.2644 23.0267 11.6283C22.8207 6.51165 17.4507 6.13423 12.3198 6.56026L23.1591 2.83892L29.6318 7.61164C31.1249 6.37665 32.2729 4.89032 32.8134 2.83892C34.1858 5.85234 34.0744 10.0012 31.1945 11.9698C32.1014 13.954 31.2775 16.5411 29.2279 17.2601L32.9824 22.2154L40.1602 25.5189L49.904 22.8723C48.804 10.0614 38.0716 0 25 0ZM29.0524 20.3118C26.9308 21.526 25.7819 23.7755 26.5263 26.9251L29.5126 28.411L37.1805 26.3282L31.9295 23.9136L31.7043 23.8106L31.5521 23.6117L29.0524 20.3118ZM50 24.9054L32.1878 29.7413L36.5945 31.9369L32.0818 40.4841L30.4264 40.2586L32.201 46.2753L27.0427 41.2404L28.9962 47.8739L21.3416 40.4013L22.9075 39.2271L17.3421 38.4643L25.0828 31.6716L13.8526 34.723C13.1866 39.3826 10.0839 41.0443 6.59533 41.9434C11.1653 46.9007 17.7184 50 25 50C38.8022 50 50 38.872 50 25.0448V24.9054Z" fill="#8008C9" fill-opacity="0.79"/>
</svg>
